<svg xmlns="http://www.w3.org/2000/svg" xmlns:xlink="http://www.w3.org/1999/xlink" version="1.1" width="1000" height="1000" viewBox="0 0 1000 1000" xml:space="preserve">
<desc>Created with Fabric.js 3.5.0</desc>
<defs>
</defs>
<rect x="0" y="0" width="100%" height="100%" fill="#ffffff"/>
<g transform="matrix(1 0 0 1 500 500)" style="" id="319048">
		
<path xml:space="preserve" font-family="Raleway" font-size="290" font-weight="bold" style="stroke: none; stroke-width: 0; stroke-dasharray: none; stroke-linecap: butt; stroke-dashoffset: 0; stroke-linejoin: miter; stroke-miterlimit: 4; is-custom-font: none; font-file-url: none; fill: rgb(29,29,27); fill-rule: nonzero; opacity: 1; white-space: pre;" d="M-285.29-114.80L-285.29-79.71L-351.12-79.71L-351.12 91.10L-390.85 91.10L-390.85-79.71L-456.68-79.71L-456.68-114.80L-285.29-114.80ZM-187.56-62.60L-187.56-27.22Q-205.25-27.22-219.17-20.40Q-233.09-13.59-239.18-0.83L-239.18-0.83L-239.18 91.10L-278.04 91.10L-278.04-60.86L-242.37-60.86L-242.37-28.38Q-234.25-44.04-221.78-53.03Q-209.31-62.02-195.39-62.89L-195.39-62.89Q-192.20-62.89-190.46-62.89Q-188.72-62.89-187.56-62.60L-187.56-62.60ZM-97.37 94.00L-97.37 94.00Q-115.64 94.00-130.43 87.77Q-145.22 81.53-155.66 70.66Q-166.10 59.78-171.75 45.72Q-177.41 31.65-177.41 15.99L-177.41 15.99Q-177.41-5.76-167.69-23.74Q-157.98-41.72-139.85-52.59Q-121.73-63.47-97.08-63.47L-97.08-63.47Q-72.14-63.47-54.45-52.59Q-36.76-41.72-27.33-23.88Q-17.91-6.05-17.91 14.54L-17.91 14.54Q-17.91 18.02-18.20 21.65Q-18.49 25.27-18.78 27.59L-18.78 27.59L-136.23 27.59Q-135.07 39.19-129.41 47.89Q-123.76 56.59-114.91 61.09Q-106.07 65.58-95.92 65.58L-95.92 65.58Q-84.32 65.58-74.02 59.93Q-63.73 54.27-59.96 44.99L-59.96 44.99L-26.61 54.27Q-32.12 65.87-42.41 74.86Q-52.71 83.85-66.63 88.93Q-80.55 94.00-97.37 94.00ZM-137.10 2.94L-137.10 2.94L-57.64 2.94Q-58.80-8.66-64.16-17.21Q-69.53-25.77-78.23-30.55Q-86.93-35.34-97.66-35.34L-97.66-35.34Q-108.10-35.34-116.65-30.55Q-125.21-25.77-130.57-17.21Q-135.94-8.66-137.10 2.94ZM151.16 91.10L109.69 91.10L65.32 25.56L44.73 45.86L44.73 91.10L5.87 91.10L5.87-120.60L44.73-120.60L44.73 7.58L105.92-60.57L147.10-60.57L90.55 3.81L151.16 91.10ZM312.98 91.10L271.51 91.10L227.14 25.56L206.55 45.86L206.55 91.10L167.69 91.10L167.69-120.60L206.55-120.60L206.55 7.58L267.74-60.57L308.92-60.57L252.37 3.81L312.98 91.10ZM419.99-62.60L419.99-27.22Q402.30-27.22 388.38-20.40Q374.46-13.59 368.37-0.83L368.37-0.83L368.37 91.10L329.51 91.10L329.51-60.86L365.18-60.86L365.18-28.38Q373.30-44.04 385.77-53.03Q398.24-62.02 412.16-62.89L412.16-62.89Q415.35-62.89 417.09-62.89Q418.83-62.89 419.99-62.60L419.99-62.60ZM443.77 91.10L411.87 91.10L411.87 49.34L443.77 49.34L443.77 91.10Z"/></g>
</svg>